<?xml version="1.0" encoding="UTF-8" standalone="no"?>
<svg width="104px" height="402px" viewBox="0 0 104 402" version="1.1" xmlns="http://www.w3.org/2000/svg" xmlns:xlink="http://www.w3.org/1999/xlink">
    <!-- Generator: Sketch 3.8.1 (29687) - http://www.bohemiancoding.com/sketch -->
    <title>Shape</title>
    <desc>Created with Sketch.</desc>
    <defs>
        <linearGradient x1="15.0696036%" y1="0%" x2="70.4433043%" y2="100%" id="linearGradient-1">
            <stop stop-color="#C63D2D" offset="0%"></stop>
            <stop stop-color="#444444" offset="100%"></stop>
        </linearGradient>
    </defs>
    <g id="home" stroke="none" stroke-width="1" fill="none" fill-rule="evenodd">
        <g id="landing" transform="translate(-767.000000, -311.000000)" fill="url(#linearGradient-1)">
            <g id="Hero-Logo" transform="translate(720.500000, 512.000000) scale(-1, 1) translate(-720.500000, -512.000000) translate(570.000000, 311.000000)">
                <path d="M69.3372726,150.661404 C69.3372726,170.749591 103.487184,187.935035 103.487191,200.881874 C103.487198,213.828713 69.3372726,231.014152 69.3372726,251.102339 C69.3372726,283.745643 74.3593194,291.278714 79.3813661,323.922018 C86.9144363,376.653509 59.293179,401.763743 34.1829451,401.763743 C9.07271115,401.763743 1.16700545,400.928074 1.16700545,398.143852 C1.16700545,395.359629 5.34333956,393.271462 10.2157293,387.006961 C10.2157293,387.006961 14.6850691,380.946969 19.1168047,372.635871 C25.6501947,360.383417 26.6498749,344.386866 26.6498749,326.433041 C26.6498749,303.833831 21.6278281,303.833831 16.6057813,253.613363 C14.0947579,231.014152 29.1608983,213.436988 44.2270386,200.881871 C29.1608983,188.326754 14.0947579,173.260614 16.6057813,150.661404 C21.6278281,100.440936 26.6498749,100.440936 26.6498749,77.8417252 C26.6498749,58.1295705 25.8554649,42.090048 19.1168047,30.4670838 C15.5546528,24.3230192 12.3038966,19.4895592 10.2157295,17.4013921 C7.43150679,13.9211137 6.03939522,11.136891 1.16700544,5.56844548 C-3.70538433,-1.38616883e-15 6.56168775,-1.38616883e-15 34.1829451,-1.38616883e-15 C61.8042024,-1.38616883e-15 86.9144363,25.1102339 79.3813661,77.8417252 C74.3593194,110.485029 69.3372726,118.018099 69.3372726,150.661404 Z" id="Shape" transform="translate(51.743596, 200.881871) scale(-1, 1) translate(-51.743596, -200.881871) "></path>
            </g>
        </g>
    </g>
</svg>