<?xml version="1.0" encoding="UTF-8" standalone="no"?>
<svg width="104px" height="402px" viewBox="0 0 104 402" version="1.1" xmlns="http://www.w3.org/2000/svg" xmlns:xlink="http://www.w3.org/1999/xlink">
    <!-- Generator: Sketch 3.8.1 (29687) - http://www.bohemiancoding.com/sketch -->
    <title>Shape</title>
    <desc>Created with Sketch.</desc>
    <defs>
        <linearGradient x1="15.0696036%" y1="0%" x2="70.4433043%" y2="100%" id="linearGradient-1">
            <stop stop-color="#C63D2D" offset="0%"></stop>
            <stop stop-color="#444444" offset="100%"></stop>
        </linearGradient>
    </defs>
    <g id="home" stroke="none" stroke-width="1" fill="none" fill-rule="evenodd">
        <g id="landing" transform="translate(-570.000000, -311.000000)" fill="url(#linearGradient-1)">
            <g id="Hero-Logo" transform="translate(720.500000, 512.000000) scale(-1, 1) translate(-720.500000, -512.000000) translate(570.000000, 311.000000)">
                <path d="M266.337273,150.661404 C266.337273,170.749591 300.487184,187.935035 300.487191,200.881874 C300.487198,213.828713 266.337273,231.014152 266.337273,251.102339 C266.337273,283.745643 271.359319,291.278714 276.381366,323.922018 C283.914436,376.653509 256.293179,401.763743 231.182945,401.763743 C206.072711,401.763743 198.167005,400.928074 198.167005,398.143852 C198.167005,395.359629 202.34334,393.271462 207.215729,387.006961 C207.215729,387.006961 211.685069,380.946969 216.116805,372.635871 C222.650195,360.383417 223.649875,344.386866 223.649875,326.433041 C223.649875,303.833831 218.627828,303.833831 213.605781,253.613363 C211.094758,231.014152 226.160898,213.436988 241.227039,200.881871 C226.160898,188.326754 211.094758,173.260614 213.605781,150.661404 C218.627828,100.440936 223.649875,100.440936 223.649875,77.8417252 C223.649875,58.1295705 222.855465,42.090048 216.116805,30.4670838 C212.554653,24.3230192 209.303897,19.4895592 207.21573,17.4013921 C204.431507,13.9211137 203.039395,11.136891 198.167005,5.56844548 C193.294616,-1.38616883e-15 203.561688,-1.38616883e-15 231.182945,-1.38616883e-15 C258.804202,-1.38616883e-15 283.914436,25.1102339 276.381366,77.8417252 C271.359319,110.485029 266.337273,118.018099 266.337273,150.661404 Z" id="Shape"></path>
            </g>
        </g>
    </g>
</svg>