<?xml version="1.0" encoding="iso-8859-1"?>
<!-- Generator: Adobe Illustrator 18.1.1, SVG Export Plug-In . SVG Version: 6.00 Build 0)  -->
<svg xmlns="http://www.w3.org/2000/svg" xmlns:xlink="http://www.w3.org/1999/xlink" version="1.1" id="Capa_1" x="0px" y="0px" viewBox="0 0 612 612" style="enable-background:new 0 0 612 612;" xml:space="preserve" width="50px" height="50px">
<g>
	<path d="M566.162,82.872h-59.953v-33.3c0-14.046-11.854-25.9-25.9-25.9h-37c-14.046,0-25.9,11.854-25.9,25.9v33.3H197.605v-33.3   c0-14.046-11.854-25.9-25.9-25.9h-37c-14.046,0-25.9,11.854-25.9,25.9v33.3H45.907C20.761,82.872,0,103.564,0,128.779V542.42   c0,25.146,20.692,45.907,45.907,45.907h520.186c25.146,0,45.907-20.692,45.907-45.907V128.779   C612,103.564,591.308,82.872,566.162,82.872z M444.817,51.765h34.053v45.153v36.246h-34.053V96.918V51.765z M136.213,51.765h34.053   v45.153v36.246h-34.053V96.918V51.765z M46.661,110.279h62.899v24.392c0,14.046,11.854,25.9,25.9,25.9h37   c14.046,0,25.9-11.854,25.9-25.9v-24.392H417.41v24.392c0,14.046,11.854,25.9,25.9,25.9h37c14.046,0,25.9-11.854,25.9-25.9v-24.392   h60.707c10.346,0,18.5,8.154,18.5,18.5v73.999H28.161v-73.999C28.161,118.364,36.314,110.279,46.661,110.279z M566.162,560.92   H46.661c-10.346,0-18.5-8.154-18.5-18.5V230.117h556.501V542.42C584.661,552.766,576.508,560.92,566.162,560.92z M148.82,304.869   c0,7.4-5.893,13.292-13.292,13.292H91.128c-7.4,0-13.292-5.893-13.292-13.292c0-7.4,5.893-13.292,13.292-13.292h44.399   C142.859,290.823,148.82,297.47,148.82,304.869z M276.811,304.869c0,7.4-5.893,13.292-13.292,13.292H219.12   c-7.4,0-13.292-5.893-13.292-13.292c0-7.4,5.893-13.292,13.292-13.292h44.399C270.165,290.823,276.811,297.47,276.811,304.869z    M404.117,304.869c0,7.4-5.892,13.292-13.292,13.292h-44.399c-7.4,0-13.292-5.893-13.292-13.292c0-7.4,5.893-13.292,13.292-13.292   h44.399C398.156,290.823,404.117,297.47,404.117,304.869z M532.108,304.869c0,7.4-5.893,13.292-13.292,13.292h-44.4   c-7.4,0-13.292-5.893-13.292-13.292c0-7.4,5.893-13.292,13.292-13.292h44.4C526.216,290.823,532.108,297.47,532.108,304.869z    M148.82,395.861c0,7.4-5.893,13.292-13.292,13.292H91.128c-7.4,0-13.292-5.893-13.292-13.292c0-7.4,5.893-13.292,13.292-13.292   h44.399C142.859,382.569,148.82,388.461,148.82,395.861z M276.811,395.861c0,7.4-5.893,13.292-13.292,13.292H219.12   c-7.4,0-13.292-5.893-13.292-13.292c0-7.4,5.893-13.292,13.292-13.292h44.399C270.165,382.569,276.811,388.461,276.811,395.861z    M404.117,395.861c0,7.4-5.892,13.292-13.292,13.292h-44.399c-7.4,0-13.292-5.893-13.292-13.292c0-7.4,5.893-13.292,13.292-13.292   h44.399C398.156,382.569,404.117,388.461,404.117,395.861z M532.108,395.861c0,7.4-5.893,13.292-13.292,13.292h-44.4   c-7.4,0-13.292-5.893-13.292-13.292c0-7.4,5.893-13.292,13.292-13.292h44.4C526.216,382.569,532.108,388.461,532.108,395.861z    M148.82,487.675c0,7.4-5.893,13.292-13.292,13.292H91.128c-7.4,0-13.292-5.892-13.292-13.292c0-7.4,5.893-13.292,13.292-13.292   h44.399C142.859,473.56,148.82,479.521,148.82,487.675z M276.811,487.675c0,7.4-5.893,13.292-13.292,13.292H219.12   c-7.4,0-13.292-5.892-13.292-13.292c0-7.4,5.893-13.292,13.292-13.292h44.399C270.165,473.56,276.811,479.521,276.811,487.675z    M404.117,487.675c0,7.4-5.892,13.292-13.292,13.292h-44.399c-7.4,0-13.292-5.892-13.292-13.292c0-7.4,5.893-13.292,13.292-13.292   h44.399C398.156,473.56,404.117,479.521,404.117,487.675z M532.108,487.675c0,7.4-5.893,13.292-13.292,13.292h-44.4   c-7.4,0-13.292-5.892-13.292-13.292c0-7.4,5.893-13.292,13.292-13.292h44.4C526.216,473.56,532.108,479.521,532.108,487.675z" fill="#FBFBFB"/>
</g>
<g>
</g>
<g>
</g>
<g>
</g>
<g>
</g>
<g>
</g>
<g>
</g>
<g>
</g>
<g>
</g>
<g>
</g>
<g>
</g>
<g>
</g>
<g>
</g>
<g>
</g>
<g>
</g>
<g>
</g>
</svg>
