<?xml version="1.0" encoding="UTF-8" standalone="no"?>
<svg width="42px" height="30px" viewBox="0 0 42 30" version="1.1" xmlns="http://www.w3.org/2000/svg" xmlns:xlink="http://www.w3.org/1999/xlink">
    <!-- Generator: Sketch 3.8.1 (29687) - http://www.bohemiancoding.com/sketch -->
    <title>log-out</title>
    <desc>Created with Sketch.</desc>
    <defs></defs>
    <g id="hamburger_logged_in" stroke="none" stroke-width="1" fill="none" fill-rule="evenodd">
        <g transform="translate(-1151.000000, -212.000000)" id="Side-Menu" fill="#444444">
            <g transform="translate(1119.000000, 0.000000)">
                <g id="Side-Menu-Items" transform="translate(30.000000, 59.000000)">
                    <g id="Log-Out" transform="translate(2.000000, 153.000000)">
                        <g id="log-out">
                            <g id="Layer_1">
                                <g id="Group">
                                    <path d="M26.8225816,0.00893545279 C24.0686452,0.00893545279 21.3883479,0.785139692 19.0712811,2.25358863 C16.8181752,3.68157514 15.0009289,5.69862717 13.8159696,8.08658478 L16.0769023,9.21219894 C18.1196106,5.09531551 22.2371761,2.53792148 26.8225816,2.53792148 C33.4353786,2.53792148 38.8152455,7.9265896 38.8152455,14.5502047 C38.8152455,21.1738198 33.4353786,26.562488 26.8225816,26.562488 C22.2372602,26.562488 18.1196948,24.0050939 16.0769023,19.8882105 L13.8159696,21.0138247 C15.0009289,23.4017823 16.8181752,25.4188343 19.0712811,26.8468208 C21.3882638,28.3152697 24.0686452,29.091474 26.8225816,29.091474 C34.8275375,29.091474 41.3400168,22.5683406 41.3400168,14.550289 C41.3400168,6.53223748 34.8275375,0.00893545279 26.8225816,0.00893545279 L26.8225816,0.00893545279 Z" id="Shape"></path>
                                    <polygon id="Shape" points="26.8225816 15.8145713 26.8225816 13.2856696 4.8329173 13.2856696 7.72739933 10.3864523 5.94213351 8.5982659 0 14.5502047 5.94213351 20.5020592 7.72739933 18.7138728 4.83283314 15.8145713"></polygon>
                                </g>
                            </g>
                        </g>
                    </g>
                </g>
            </g>
        </g>
    </g>
</svg>