<svg width="98px" height="42px" viewBox="0 0 98 42" version="1.1" xmlns="http://www.w3.org/2000/svg" xmlns:xlink="http://www.w3.org/1999/xlink">
    <g id="hamburger_logged_out" stroke="none" stroke-width="1" fill="none" fill-rule="evenodd">
        <g transform="translate(-1269.000000, -150.000000)" id="Meetup-BTN" fill="#FFFFFF">
            <g transform="translate(1155.000000, 141.000000)">
                <g id="meetup-logo" transform="translate(114.000000, 9.000000)">
                    <g id="Capa_1">
                        <g id="Group">
                            <path d="M20.064,9.749 C19.854,9.027 19.24,8.122 18.597,7.891 C17.547,7.513 16.324,7.549 15.17,7.558 C14.761,7.561 14.128,7.903 13.982,8.252 C13.177,10.181 12.37,12.124 11.798,14.128 C11.194,16.245 10.857,18.437 10.365,20.753 C10.144,20.382 9.969,20.116 9.82,19.835 C8.728,17.744 7.649,15.651 6.555,13.564 C5.454,11.465 4.837,11.153 2.471,11.543 C1.883,11.638 1.283,11.778 0.742,12.021 C0.473,12.143 0.161,12.533 0.152,12.811 C-0.018,17.648 -0.201,22.481 0.537,27.301 C1.047,30.644 1.667,31.075 4.862,29.852 C5.021,29.79 5.167,29.7 5.326,29.633 C6.048,29.329 6.377,28.843 6.247,28.017 C6.018,26.589 5.857,25.15 5.672,23.715 C5.738,23.71 5.806,23.704 5.873,23.699 C6.836,25.264 7.829,26.811 8.754,28.399 C9.512,29.692 10.399,30.537 12.057,30.043 C12.7,29.851 13.443,29.981 14.085,29.785 C14.531,29.649 15.05,29.286 15.245,28.884 C15.513,28.327 15.58,27.642 15.616,27.005 C15.771,24.312 15.878,21.612 16.019,18.918 C16.042,18.422 16.141,17.929 16.22,17.333 C17.666,21.957 19.077,26.387 20.422,30.84 C20.656,31.617 20.922,31.939 21.75,31.694 C22.896,31.358 24.06,31.09 25.006,30.848 C23.967,26.265 22.973,21.805 21.944,17.351 C21.359,14.808 20.79,12.254 20.064,9.749 L20.064,9.749 Z" id="Shape"></path>
                            <path d="M97.396,15.191 C97.182,13.26 96.623,11.39 94.276,10.846 C93.412,10.644 92.623,10.046 91.758,9.917 C90.842,9.783 89.735,9.709 88.952,10.098 C86.038,11.551 84.254,14.078 83.437,17.152 C82.693,19.948 82.307,22.84 81.735,25.684 C81.672,26.01 81.502,26.451 81.247,26.583 C79.878,27.296 79.788,28.097 80.902,29.149 C81.278,29.503 81.539,30.104 81.619,30.628 C82.113,33.789 82.527,36.961 83.014,40.125 C83.068,40.485 83.393,41.086 83.614,41.097 C84.922,41.153 86.232,41.066 87.566,41.027 C86.282,35.77 85.966,32.405 86.503,30.071 C87.323,29.772 88.239,29.644 88.898,29.162 C90.647,27.877 92.303,26.461 93.962,25.059 C97.052,22.457 97.814,18.98 97.396,15.191 L97.396,15.191 Z M86.647,25.584 C87.578,21.08 88.138,16.564 91.898,13.303 C93.704,17.945 91.409,23.121 86.647,25.584 L86.647,25.584 Z" id="Shape"></path>
                            <path d="M35.091,28.913 C33.238,29.757 31.83,29.429 30.768,27.789 C29.673,26.101 29.765,24.224 30.017,22.337 C32.115,22.444 34.066,22.544 36.02,22.65 C36.766,22.691 36.979,22.327 37.151,21.613 C37.828,18.787 37.273,15.987 37.116,13.179 C37.028,11.575 36.655,10.242 34.638,9.893 C32.818,9.579 31.192,9.007 29.518,10.513 C27.839,12.028 26.263,13.474 25.619,15.761 C24.815,18.604 24.903,21.493 24.857,24.388 C24.82,26.848 25.697,28.631 27.888,30.031 C30.913,31.963 36.74,32.103 39.77,29.94 C38.443,28.558 36.712,28.176 35.091,28.913 L35.091,28.913 Z M30.612,17.651 C30.9,16.597 31.386,15.599 31.784,14.575 C31.93,14.611 32.073,14.647 32.216,14.683 C32.252,16.257 32.287,17.832 32.322,19.51 C30.189,19.417 30.135,19.402 30.612,17.651 L30.612,17.651 Z" id="Shape"></path>
                            <path d="M52.086,27.628 C51.729,27.536 51.259,27.581 50.923,27.741 C50.154,28.112 49.484,28.718 48.689,28.998 C47.37,29.462 46.053,29.409 45.035,28.237 C43.802,26.818 42.798,25.318 43.497,23.185 C45.682,23.483 47.846,24.252 49.821,23.007 C50.018,20.716 50.195,18.549 50.398,16.389 C50.575,14.569 50.842,12.757 50.936,10.934 C50.957,10.5 50.54,9.832 50.148,9.629 C49.09,9.093 47.958,8.671 46.811,8.36 C46.283,8.216 45.399,8.21 45.118,8.529 C43.575,10.281 41.777,11.97 40.81,14.03 C39.454,16.919 38.639,20.054 38.75,23.387 C38.866,26.835 40.84,29.719 44.154,30.564 C45.061,30.793 46.029,30.781 46.947,30.981 C49.399,31.511 51.444,30.519 53.494,29.472 C53.481,28.407 52.95,27.844 52.086,27.628 L52.086,27.628 Z M45.885,14.499 C46.024,14.53 46.161,14.562 46.3,14.596 C46.279,16.144 46.336,17.698 46.215,19.238 C46.073,21.078 45.942,21.113 43.773,20.459 C44.479,18.461 45.184,16.479 45.885,14.499 L45.885,14.499 Z" id="Shape"></path>
                            <path d="M61.661,18.401 C61.639,18.675 61.336,18.924 61.161,19.186 C61.037,18.86 60.799,18.529 60.815,18.21 C60.854,17.379 61.103,16.554 61.093,15.729 C61.045,11.966 60.818,8.202 60.901,4.444 C60.954,1.998 61.069,1.877 58.788,0.852 C56.564,-0.147 55.515,0.427 55.454,2.875 C55.396,5.184 55.486,7.503 55.662,9.806 C55.91,12.995 56.307,16.173 56.657,19.545 C55.719,19.504 54.877,19.474 54.041,19.425 C53.042,19.366 52.349,19.718 52.27,20.8 C52.184,21.895 52.857,22.185 53.81,22.202 C54.826,22.222 55.838,22.308 56.938,22.37 C57.079,24.117 57.224,25.73 57.334,27.344 C57.443,28.946 57.517,30.549 57.609,32.235 C58.846,32.029 59.914,31.852 61.03,31.667 C60.964,30.083 60.884,28.633 60.849,27.179 C60.813,25.73 60.888,24.275 60.786,22.83 C60.724,22.008 61.169,22.044 61.7,21.976 C63.207,21.786 64.708,21.566 66.209,21.357 C66.278,21.205 66.35,21.052 66.416,20.902 C65.21,19.825 64.05,18.686 62.77,17.705 C62.251,17.309 61.73,17.606 61.661,18.401 L61.661,18.401 Z" id="Shape"></path>
                            <path d="M79.658,16.818 C79.07,16.564 78.511,16.222 77.896,16.054 C77.49,15.941 76.831,15.892 76.615,16.123 C76.253,16.511 76.012,17.135 75.98,17.677 C75.934,18.426 76.199,19.189 76.203,19.947 C76.216,23.195 75.42,26.131 72.664,28.483 C72.532,28.055 72.385,27.78 72.366,27.497 C72.204,24.933 71.969,22.369 71.944,19.801 C71.921,17.288 71.971,17.215 69.609,16.176 C69.255,16.021 68.911,15.831 68.547,15.713 C67.332,15.321 66.735,15.716 66.693,16.988 C66.66,17.884 66.63,18.801 66.775,19.68 C67.288,22.747 67.799,25.818 68.471,28.853 C68.724,30.014 69.577,30.958 70.909,30.992 C72.056,31.019 73.236,30.946 74.348,30.685 C74.971,30.54 75.562,30.002 76.026,29.508 C76.707,28.782 77.224,27.908 77.873,27.152 C79.686,25.033 81.166,22.819 81.269,19.859 C81.324,18.411 81.022,17.403 79.658,16.818 L79.658,16.818 Z" id="Shape"></path>
                        </g>
                    </g>
                </g>
            </g>
        </g>
    </g>
</svg>
