<svg width="59px" height="42px" viewBox="0 0 59 42" version="1.1" xmlns="http://www.w3.org/2000/svg" xmlns:xlink="http://www.w3.org/1999/xlink">
    <g id="hamburger_logged_out" stroke="none" stroke-width="1" fill="none" fill-rule="evenodd">
        <g transform="translate(-1193.000000, -150.000000)" id="Meetup-BTN" fill="#FFFFFF">
            <g transform="translate(1155.000000, 141.000000)">
                <g id="meetup" transform="translate(38.000000, 9.000000)">
                    <g id="Capa_1">
                        <g id="Group">
                            <path d="M53.1904156,0.0957090909 L5.74675325,0.0957090909 C2.57812121,0.0957090909 0,2.66509091 0,5.82298182 L0,36.1144 C0,39.2722909 2.57812121,41.8416727 5.74675325,41.8416727 L53.1904156,41.8416727 C56.3590476,41.8416727 58.9371688,39.2722909 58.9371688,36.1144 L58.9371688,5.82298182 C58.9371688,2.66509091 56.3590476,0.0957090909 53.1904156,0.0957090909 L53.1904156,0.0957090909 Z M3.83116883,13.6097818 L55.106,13.6097818 L55.106,28.3276 L3.83116883,28.3276 L3.83116883,13.6097818 L3.83116883,13.6097818 Z M5.74675325,3.91389091 L53.1904156,3.91389091 C54.2467965,3.91389091 55.106,4.77018182 55.106,5.82298182 L55.106,9.7916 L3.83116883,9.7916 L3.83116883,5.82298182 C3.83116883,4.77018182 4.69037229,3.91389091 5.74675325,3.91389091 L5.74675325,3.91389091 Z M53.1904156,38.0234909 L5.74675325,38.0234909 C4.69037229,38.0234909 3.83116883,37.1672 3.83116883,36.1144 L3.83116883,32.1457818 L55.106,32.1457818 L55.106,36.1144 C55.106,37.1672 54.2467965,38.0234909 53.1904156,38.0234909 L53.1904156,38.0234909 Z" id="Shape"></path>
                            <path d="M44.8037316,19.0596 L14.1334372,19.0596 C13.0752684,19.0596 12.2178528,19.9141091 12.2178528,20.9686909 C12.2178528,22.0232727 13.0752684,22.8777818 14.1334372,22.8777818 L44.8037316,22.8777818 C45.8619004,22.8777818 46.719316,22.0232727 46.719316,20.9686909 C46.719316,19.9141091 45.8619004,19.0596 44.8037316,19.0596 L44.8037316,19.0596 Z" id="Shape"></path>
                        </g>
                    </g>
                </g>
            </g>
        </g>
    </g>
</svg>
